name ./resultDataOpenSim/trcMotMarkerGrf/sub09/grf-03-07.mot
datacolumns 19
datarows 12
range 1.47200000 1.51600000
endheader

                time	     ground_force_vx	     ground_force_vy	     ground_force_vz	     ground_force_px	     ground_force_py	     ground_force_pz	   l_ground_force_vx	   l_ground_force_vy	   l_ground_force_vz	   l_ground_force_px	   l_ground_force_py	   l_ground_force_pz	     ground_torque_x	     ground_torque_y	     ground_torque_z	   l_ground_torque_x	   l_ground_torque_y	   l_ground_torque_z	
          1.47200000	        -21.29679680	        458.72449786	        -16.93395443	          0.99003865	          0.00000000	          0.10210203	          0.00000000	          0.00000000	          0.00000000	          0.00000000	          0.00000000	          0.00000000	          0.00000000	         -0.61749218	          0.00000000	          0.00000000	          0.00000000	          0.00000000	
          1.47600000	        -17.40862502	        455.42203150	        -15.74528632	          0.99027131	          0.00000000	          0.10220715	          0.00000000	          0.00000000	          0.00000000	          0.00000000	          0.00000000	          0.00000000	          0.00000000	         -0.59253576	          0.00000000	          0.00000000	          0.00000000	          0.00000000	
          1.48000000	        -16.46248834	        452.64789726	        -14.32080413	          0.99089278	          0.00000000	          0.10225180	          0.00000000	          0.00000000	          0.00000000	          0.00000000	          0.00000000	          0.00000000	          0.00000000	         -0.44074763	          0.00000000	          0.00000000	          0.00000000	          0.00000000	
          1.48400000	        -18.26396105	        450.35706828	        -12.96254632	          0.99188376	          0.00000000	          0.10224871	          0.00000000	          0.00000000	          0.00000000	          0.00000000	          0.00000000	          0.00000000	          0.00000000	         -0.17864950	          0.00000000	          0.00000000	          0.00000000	          0.00000000	
          1.48800000	        -21.89832784	        448.45550142	        -11.94605118	          0.99312833	          0.00000000	          0.10223115	          0.00000000	          0.00000000	          0.00000000	          0.00000000	          0.00000000	          0.00000000	          0.00000000	          0.14773901	          0.00000000	          0.00000000	          0.00000000	          0.00000000	
          1.49200000	        -25.99188680	        446.86949513	        -11.47425428	          0.99443659	          0.00000000	          0.10222787	          0.00000000	          0.00000000	          0.00000000	          0.00000000	          0.00000000	          0.00000000	          0.00000000	          0.47514071	          0.00000000	          0.00000000	          0.00000000	          0.00000000	
          1.49600000	        -29.08172349	        445.57291672	        -11.64580243	          0.99557387	          0.00000000	          0.10224975	          0.00000000	          0.00000000	          0.00000000	          0.00000000	          0.00000000	          0.00000000	          0.00000000	          0.74046175	          0.00000000	          0.00000000	          0.00000000	          0.00000000	
          1.50000000	        -30.01157512	        444.55129095	        -12.43990184	          0.99634204	          0.00000000	          0.10229460	          0.00000000	          0.00000000	          0.00000000	          0.00000000	          0.00000000	          0.00000000	          0.00000000	          0.89806503	          0.00000000	          0.00000000	          0.00000000	          0.00000000	
          1.50400000	        -28.23923679	        443.77259978	        -13.72844231	          0.99665342	          0.00000000	          0.10237295	          0.00000000	          0.00000000	          0.00000000	          0.00000000	          0.00000000	          0.00000000	          0.00000000	          0.93166731	          0.00000000	          0.00000000	          0.00000000	          0.00000000	
          1.50800000	        -23.95779305	        443.21078659	        -15.31142580	          0.99657495	          0.00000000	          0.10249599	          0.00000000	          0.00000000	          0.00000000	          0.00000000	          0.00000000	          0.00000000	          0.00000000	          0.85765809	          0.00000000	          0.00000000	          0.00000000	          0.00000000	
          1.51200000	        -18.01551213	        442.87856685	        -16.95994540	          0.99623672	          0.00000000	          0.10265088	          0.00000000	          0.00000000	          0.00000000	          0.00000000	          0.00000000	          0.00000000	          0.00000000	          0.71961043	          0.00000000	          0.00000000	          0.00000000	          0.00000000	
          1.51600000	        -11.67359078	        442.82079526	        -18.46143590	          0.99582381	          0.00000000	          0.10279438	          0.00000000	          0.00000000	          0.00000000	          0.00000000	          0.00000000	          0.00000000	          0.00000000	          0.57631170	          0.00000000	          0.00000000	          0.00000000	          0.00000000	
